# xmcd
#
# Track frame offsets:
#	150
#	14876
#	35658
#	48248
#	63464
#	76619
#	94711
#	117406
#	137888
#	151799
#	168331
#	190189
#
# Disc length: 2768 seconds
#
# Revision: 1
# Processed by: cddbd v1.5.2PL0 Copyright (c) Steve Scherf et al.
# Submitted via: audiograbber 1.83.01
#
DISCID=990ace0c
DTITLE=Doug Jernigan - Speed Pickin' and Country Ballads
DYEAR=2004
DGENRE=Ballad
TTITLE0=Doug Jernigan - Eight Days A Week
TTITLE1=Doug Jernigan - I'm Just Blue Enough
TTITLE2=Doug Jernigan - Riverwood Drive
TTITLE3=Doug Jernigan - Bonnie Marie
TTITLE4=Doug Jernigan - Arkansas Traveler
TTITLE5=Doug Jernigan - I Hope YOu Dance
TTITLE6=Doug Jernigan - Orange Blossom Special
TTITLE7=Doug Jernigan - You Are My Treasure
TTITLE8=Doug Jernigan - Roanoke
TTITLE9=Doug Jernigan - Slide Off Your Satin Sheets
TTITLE10=Doug Jernigan - It's A Wonderful World
TTITLE11=Doug Jernigan - Amada's Serenade
EXTD=Doug Jernigan  - Steel Guitar, Brent Mason - Guitar, David Smith - Electri
EXTD=c Bass, Ray Van Rotz - Drums, Hoot Hestler - Fiddle and Rhythm, Vassar Cleme
EXTD=nts - Fiddle, Roger Morris - Piano
EXTT0=
EXTT1=
EXTT2=
EXTT3=
EXTT4=
EXTT5=
EXTT6=
EXTT7=
EXTT8=
EXTT9=
EXTT10=
EXTT11=
PLAYORDER=
